<svg xmlns="http://www.w3.org/2000/svg" viewBox="0 0 444 729" width="444" height="729"><defs><linearGradient id="grd1" gradientUnits="userSpaceOnUse"  x1="221.599" y1="348.608" x2="221.599" y2="730.297"><stop offset="0" stop-color="#e3e3e3"  /><stop offset="1" stop-color="#bdbdbd"  /></linearGradient><linearGradient id="grd2" gradientUnits="userSpaceOnUse"  x1="232.09" y1="727.712" x2="232.09" y2="680.921"><stop offset="0" stop-color="#000000"  /><stop offset="0.5" stop-color="#000000" stop-opacity="0.32" /><stop offset="1" stop-color="#000000" stop-opacity="0" /></linearGradient><linearGradient id="grd3" gradientUnits="userSpaceOnUse"  x1="4.5" y1="707.978" x2="51.519" y2="672.281"><stop offset="0" stop-color="#000000"  /><stop offset="0.5" stop-color="#000000" stop-opacity="0.32" /><stop offset="1" stop-color="#000000" stop-opacity="0" /></linearGradient><linearGradient id="grd4" gradientUnits="userSpaceOnUse"  x1="18.763" y1="723.008" x2="55.766" y2="676.939"><stop offset="0" stop-color="#000000"  /><stop offset="0.5" stop-color="#000000" stop-opacity="0.32" /><stop offset="1" stop-color="#000000" stop-opacity="0" /></linearGradient><linearGradient id="grd5" gradientUnits="userSpaceOnUse"  x1="40.574" y1="728.951" x2="59.518" y2="678.782"><stop offset="0" stop-color="#000000"  /><stop offset="0.5" stop-color="#000000" stop-opacity="0.32" /><stop offset="1" stop-color="#000000" stop-opacity="0" /></linearGradient><linearGradient id="grd6" gradientUnits="userSpaceOnUse"  x1="60.545" y1="727.864" x2="66.109" y2="680.83"><stop offset="0" stop-color="#000000"  /><stop offset="0.5" stop-color="#000000" stop-opacity="0.32" /><stop offset="1" stop-color="#000000" stop-opacity="0" /></linearGradient><linearGradient id="grd7" gradientUnits="userSpaceOnUse"  x1="0.254" y1="686.613" x2="47.785" y2="667.317"><stop offset="0" stop-color="#000000"  /><stop offset="0.5" stop-color="#000000" stop-opacity="0.32" /><stop offset="1" stop-color="#000000" stop-opacity="0" /></linearGradient><linearGradient id="grd8" gradientUnits="userSpaceOnUse"  x1="0.013" y1="667.485" x2="46.429" y2="661.214"><stop offset="0" stop-color="#000000"  /><stop offset="0.5" stop-color="#000000" stop-opacity="0.32" /><stop offset="1" stop-color="#000000" stop-opacity="0" /></linearGradient><linearGradient id="grd9" gradientUnits="userSpaceOnUse"  x1="438.664" y1="707.978" x2="391.645" y2="672.281"><stop offset="0" stop-color="#000000"  /><stop offset="0.5" stop-color="#000000" stop-opacity="0.32" /><stop offset="1" stop-color="#000000" stop-opacity="0" /></linearGradient><linearGradient id="grd10" gradientUnits="userSpaceOnUse"  x1="424.401" y1="723.008" x2="387.398" y2="676.939"><stop offset="0" stop-color="#000000"  /><stop offset="0.5" stop-color="#000000" stop-opacity="0.32" /><stop offset="1" stop-color="#000000" stop-opacity="0" /></linearGradient><linearGradient id="grd11" gradientUnits="userSpaceOnUse"  x1="402.59" y1="728.951" x2="383.646" y2="678.782"><stop offset="0" stop-color="#000000"  /><stop offset="0.5" stop-color="#000000" stop-opacity="0.32" /><stop offset="1" stop-color="#000000" stop-opacity="0" /></linearGradient><linearGradient id="grd12" gradientUnits="userSpaceOnUse"  x1="382.619" y1="727.864" x2="377.055" y2="680.83"><stop offset="0" stop-color="#000000"  /><stop offset="0.5" stop-color="#000000" stop-opacity="0.32" /><stop offset="1" stop-color="#000000" stop-opacity="0" /></linearGradient><linearGradient id="grd13" gradientUnits="userSpaceOnUse"  x1="442.91" y1="686.613" x2="395.379" y2="667.317"><stop offset="0" stop-color="#000000"  /><stop offset="0.5" stop-color="#000000" stop-opacity="0.32" /><stop offset="1" stop-color="#000000" stop-opacity="0" /></linearGradient><linearGradient id="grd14" gradientUnits="userSpaceOnUse"  x1="443.151" y1="667.485" x2="396.736" y2="661.214"><stop offset="0" stop-color="#000000"  /><stop offset="0.5" stop-color="#000000" stop-opacity="0.32" /><stop offset="1" stop-color="#000000" stop-opacity="0" /></linearGradient><linearGradient id="grd15" gradientUnits="userSpaceOnUse"  x1="231.897" y1="1.201" x2="231.897" y2="47.944"><stop offset="0" stop-color="#000000"  /><stop offset="0.5" stop-color="#000000" stop-opacity="0.32" /><stop offset="1" stop-color="#000000" stop-opacity="0" /></linearGradient><linearGradient id="grd16" gradientUnits="userSpaceOnUse"  x1="4.497" y1="20.915" x2="51.476" y2="56.575"><stop offset="0" stop-color="#000000"  /><stop offset="0.5" stop-color="#000000" stop-opacity="0.32" /><stop offset="1" stop-color="#000000" stop-opacity="0" /></linearGradient><linearGradient id="grd17" gradientUnits="userSpaceOnUse"  x1="18.748" y1="5.901" x2="55.72" y2="51.921"><stop offset="0" stop-color="#000000"  /><stop offset="0.5" stop-color="#000000" stop-opacity="0.32" /><stop offset="1" stop-color="#000000" stop-opacity="0" /></linearGradient><linearGradient id="grd18" gradientUnits="userSpaceOnUse"  x1="40.54" y1="-0.037" x2="59.468" y2="50.08"><stop offset="0" stop-color="#000000"  /><stop offset="0.5" stop-color="#000000" stop-opacity="0.32" /><stop offset="1" stop-color="#000000" stop-opacity="0" /></linearGradient><linearGradient id="grd19" gradientUnits="userSpaceOnUse"  x1="60.495" y1="1.05" x2="66.054" y2="48.034"><stop offset="0" stop-color="#000000"  /><stop offset="0.5" stop-color="#000000" stop-opacity="0.32" /><stop offset="1" stop-color="#000000" stop-opacity="0" /></linearGradient><linearGradient id="grd20" gradientUnits="userSpaceOnUse"  x1="0.254" y1="42.258" x2="47.746" y2="61.534"><stop offset="0" stop-color="#000000"  /><stop offset="0.5" stop-color="#000000" stop-opacity="0.32" /><stop offset="1" stop-color="#000000" stop-opacity="0" /></linearGradient><linearGradient id="grd21" gradientUnits="userSpaceOnUse"  x1="0.013" y1="61.366" x2="46.39" y2="67.63"><stop offset="0" stop-color="#000000"  /><stop offset="0.5" stop-color="#000000" stop-opacity="0.32" /><stop offset="1" stop-color="#000000" stop-opacity="0" /></linearGradient><linearGradient id="grd22" gradientUnits="userSpaceOnUse"  x1="438.687" y1="20.915" x2="391.424" y2="56.575"><stop offset="0" stop-color="#000000"  /><stop offset="0.5" stop-color="#000000" stop-opacity="0.32" /><stop offset="1" stop-color="#000000" stop-opacity="0" /></linearGradient><linearGradient id="grd23" gradientUnits="userSpaceOnUse"  x1="424.35" y1="5.901" x2="387.154" y2="51.921"><stop offset="0" stop-color="#000000"  /><stop offset="0.5" stop-color="#000000" stop-opacity="0.32" /><stop offset="1" stop-color="#000000" stop-opacity="0" /></linearGradient><linearGradient id="grd24" gradientUnits="userSpaceOnUse"  x1="402.426" y1="-0.037" x2="383.383" y2="50.08"><stop offset="0" stop-color="#000000"  /><stop offset="0.5" stop-color="#000000" stop-opacity="0.32" /><stop offset="1" stop-color="#000000" stop-opacity="0" /></linearGradient><linearGradient id="grd25" gradientUnits="userSpaceOnUse"  x1="382.351" y1="1.05" x2="376.758" y2="48.034"><stop offset="0" stop-color="#000000"  /><stop offset="0.5" stop-color="#000000" stop-opacity="0.32" /><stop offset="1" stop-color="#000000" stop-opacity="0" /></linearGradient><linearGradient id="grd26" gradientUnits="userSpaceOnUse"  x1="442.955" y1="42.258" x2="395.177" y2="61.534"><stop offset="0" stop-color="#000000"  /><stop offset="0.5" stop-color="#000000" stop-opacity="0.32" /><stop offset="1" stop-color="#000000" stop-opacity="0" /></linearGradient><linearGradient id="grd27" gradientUnits="userSpaceOnUse"  x1="443.198" y1="61.366" x2="396.541" y2="67.63"><stop offset="0" stop-color="#000000"  /><stop offset="0.5" stop-color="#000000" stop-opacity="0.32" /><stop offset="1" stop-color="#000000" stop-opacity="0" /></linearGradient><linearGradient id="grd28" gradientUnits="userSpaceOnUse"  x1="443.187" y1="364.42" x2="396.423" y2="364.42"><stop offset="0" stop-color="#000000"  /><stop offset="0.5" stop-color="#000000" stop-opacity="0.32" /><stop offset="1" stop-color="#000000" stop-opacity="0" /></linearGradient><linearGradient id="grd29" gradientUnits="userSpaceOnUse"  x1="0.015" y1="364.42" x2="46.778" y2="364.42"><stop offset="0" stop-color="#000000"  /><stop offset="0.5" stop-color="#000000" stop-opacity="0.32" /><stop offset="1" stop-color="#000000" stop-opacity="0" /></linearGradient><linearGradient id="grd30" gradientUnits="userSpaceOnUse"  x1="214.816" y1="482.046" x2="214.816" y2="566.891"><stop offset="0" stop-color="#b6b6b6"  /><stop offset="1" stop-color="#ababab" stop-opacity="0" /></linearGradient><filter x="-50%" y="-50%" width="200%" height="200%" id="flt1"> <feGaussianBlur stdDeviation="0.668" /> </filter><filter x="-50%" y="-50%" width="200%" height="200%" id="flt2"> <feGaussianBlur stdDeviation="0.243" /> </filter><linearGradient id="grd31" gradientUnits="userSpaceOnUse"  x1="211.827" y1="-53.553" x2="211.827" y2="319.656"><stop offset="0" stop-color="#ffffff"  /><stop offset="1" stop-color="#f6f6f6" stop-opacity="0" /></linearGradient></defs><style>tspan { white-space:pre }.shp0 { fill: url(#grd1) } .shp1 { opacity: 0.502;fill: url(#grd2) } .shp2 { opacity: 0.725;fill: url(#grd3) } .shp3 { opacity: 0.722;fill: url(#grd4) } .shp4 { opacity: 0.608;fill: url(#grd5) } .shp5 { opacity: 0.502;fill: url(#grd6) } .shp6 { opacity: 0.608;fill: url(#grd7) } .shp7 { opacity: 0.525;fill: url(#grd8) } .shp8 { opacity: 0.725;fill: url(#grd9) } .shp9 { opacity: 0.722;fill: url(#grd10) } .shp10 { opacity: 0.608;fill: url(#grd11) } .shp11 { opacity: 0.502;fill: url(#grd12) } .shp12 { opacity: 0.608;fill: url(#grd13) } .shp13 { opacity: 0.525;fill: url(#grd14) } .shp14 { opacity: 0.502;fill: url(#grd15) } .shp15 { opacity: 0.725;fill: url(#grd16) } .shp16 { opacity: 0.722;fill: url(#grd17) } .shp17 { opacity: 0.608;fill: url(#grd18) } .shp18 { opacity: 0.502;fill: url(#grd19) } .shp19 { opacity: 0.608;fill: url(#grd20) } .shp20 { opacity: 0.525;fill: url(#grd21) } .shp21 { opacity: 0.725;fill: url(#grd22) } .shp22 { opacity: 0.722;fill: url(#grd23) } .shp23 { opacity: 0.608;fill: url(#grd24) } .shp24 { opacity: 0.502;fill: url(#grd25) } .shp25 { opacity: 0.608;fill: url(#grd26) } .shp26 { opacity: 0.525;fill: url(#grd27) } .shp27 { opacity: 0.231;fill: url(#grd28) } .shp28 { opacity: 0.231;fill: url(#grd29) } .shp29 { fill: #f3f3f3 } .shp30 { fill: url(#grd30) } .shp31 { opacity: 0.612;fill: #3b3939 } .shp32 { fill: #6a6767 } .shp33 { opacity: 0.435;fill: #000000 } .shp34 { fill: none;stroke: #434343;stroke-linecap:round;stroke-width: 5.846 } .shp35 { opacity: 0.11;filter: url(#flt1);fill: none;stroke: #000000;stroke-width: 1.172 } .shp36 { opacity: 0.098;filter: url(#flt2);fill: none;stroke: #000000;stroke-width: 1.172 } .shp37 { opacity: 0.463;fill: url(#grd31) } </style><g ><path class="shp0" d="M0 0.17L443.2 0.17L443.2 728.93L0 728.93L0 0.17Z" /><g ><g style="opacity: 0.408"><path class="shp1" d="M374.4 680.76L68.77 680.76L68.77 728.91L374.4 728.91L374.4 680.76Z" /><g ><path class="shp2" d="M52.49 675.45C50.74 673.72 49.21 671.77 48.27 669.44L0.64 696.95C1.91 704.74 5.59 711.64 10.79 717.09L52.49 675.45Z" /><path class="shp3" d="M57.22 678.82C55.48 677.93 53.87 676.81 52.49 675.45L10.79 717.09C15.66 722.18 21.93 725.84 28.98 727.63L57.22 678.82Z" /><path class="shp4" d="M62.9 680.5C60.88 680.23 58.95 679.71 57.22 678.82L28.98 727.63C31.95 728.39 35.03 728.91 38.26 728.91L49.92 728.91L62.9 680.5Z" /><path class="shp5" d="M62.9 680.5L49.92 728.91L68.77 728.91L68.77 680.76L64.99 680.76C64.26 680.76 63.6 680.6 62.9 680.5Z" /><path class="shp6" d="M0.64 696.95L48.27 669.44C47.49 667.52 46.99 665.45 46.91 663.26L0.01 675.78L0.01 690.72C0.01 692.85 0.3 694.91 0.64 696.95Z" /><path class="shp7" d="M0.01 675.78L46.91 663.26C46.9 663.04 46.84 662.85 46.84 662.63L46.84 659.19L0.01 659.19L0.01 675.78Z" /></g><g ><path class="shp8" d="M390.68 675.45C392.43 673.72 393.96 671.77 394.9 669.44L442.53 696.95C441.25 704.74 437.57 711.64 432.37 717.09L390.68 675.45Z" /><path class="shp9" d="M385.95 678.82C387.69 677.93 389.3 676.81 390.68 675.45L432.37 717.09C427.5 722.18 421.24 725.84 414.18 727.63L385.95 678.82Z" /><path class="shp10" d="M380.27 680.5C382.28 680.23 384.21 679.71 385.95 678.82L414.18 727.63C411.21 728.39 408.13 728.91 404.91 728.91L393.25 728.91L380.27 680.5Z" /><path class="shp11" d="M380.27 680.5L393.25 728.91L374.4 728.91L374.4 680.76L378.17 680.76C378.9 680.76 379.57 680.6 380.27 680.5Z" /><path class="shp12" d="M442.53 696.95L394.9 669.44C395.67 667.52 396.18 665.45 396.25 663.26L443.15 675.78L443.15 690.72C443.15 692.85 442.86 694.91 442.53 696.95Z" /><path class="shp13" d="M443.15 675.78L396.25 663.26C396.26 663.04 396.33 662.85 396.33 662.63L396.33 659.19L443.15 659.19L443.15 675.78Z" /></g></g><g style="opacity: 0.408"><path class="shp14" d="M374.09 48.1L68.71 48.1L68.71 0L374.09 0L374.09 48.1Z" /><g ><path class="shp15" d="M52.44 53.41C50.69 55.14 49.17 57.08 48.23 59.41L0.64 31.94C1.91 24.15 5.59 17.25 10.78 11.82L52.44 53.41Z" /><path class="shp16" d="M57.17 50.04C55.43 50.93 53.82 52.05 52.44 53.41L10.78 11.82C15.65 6.73 21.91 3.07 28.96 1.28L57.17 50.04Z" /><path class="shp17" d="M62.85 48.36C60.83 48.63 58.9 49.16 57.17 50.04L28.96 1.28C31.93 0.52 35 0 38.23 0L49.88 0L62.85 48.36Z" /><path class="shp18" d="M62.85 48.36L49.88 0L68.71 0L68.71 48.1L64.94 48.1C64.21 48.1 63.54 48.27 62.85 48.36Z" /><path class="shp19" d="M0.64 31.94L48.23 59.41C47.45 61.33 46.95 63.4 46.87 65.59L0.01 53.08L0.01 38.15C0.01 36.03 0.3 33.97 0.64 31.94Z" /><path class="shp20" d="M0.01 53.08L46.87 65.59C46.87 65.8 46.8 66 46.8 66.21L46.8 69.65L0.01 69.65L0.01 53.08Z" /></g><g ><path class="shp21" d="M390.45 53.41C392.21 55.14 393.75 57.08 394.69 59.41L442.57 31.94C441.29 24.15 437.59 17.25 432.36 11.82L390.45 53.41Z" /><path class="shp22" d="M385.7 50.04C387.44 50.93 389.06 52.05 390.45 53.41L432.36 11.82C427.47 6.73 421.17 3.07 414.08 1.28L385.7 50.04Z" /><path class="shp23" d="M379.98 48.36C382.01 48.63 383.95 49.16 385.7 50.04L414.08 1.28C411.09 0.52 408 0 404.75 0L393.03 0L379.98 48.36Z" /><path class="shp24" d="M379.98 48.36L393.03 0L374.09 0L374.09 48.1L377.88 48.1C378.62 48.1 379.28 48.27 379.98 48.36Z" /><path class="shp25" d="M442.57 31.94L394.69 59.41C395.47 61.33 395.98 63.4 396.06 65.59L443.2 53.08L443.2 38.15C443.2 36.03 442.91 33.97 442.57 31.94Z" /><path class="shp26" d="M443.2 53.08L396.06 65.59C396.06 65.8 396.13 66 396.13 66.21L396.13 69.65L443.2 69.65L443.2 53.08Z" /></g></g><g style="opacity: 0.898"><g ><path class="shp27" d="M443.19 69.65L443.19 659.19L396.42 659.19L396.42 69.65L443.19 69.65Z" /></g><path class="shp28" d="M0.01 69.65L0.01 659.19L46.78 659.19L46.78 69.65L0.01 69.65Z" /></g></g><path class="shp29" d="M348.44 531.13C348.44 604.93 288.61 664.75 214.82 664.75C141.02 664.75 81.19 604.93 81.19 531.13C81.19 457.33 141.02 397.51 214.82 397.51C288.61 397.51 348.44 457.33 348.44 531.13L348.44 531.13Z" /><path class="shp30" d="M263.9 531.13C263.9 558.24 241.93 580.22 214.82 580.22C187.71 580.22 165.73 558.24 165.73 531.13C165.73 504.02 187.71 482.05 214.82 482.05C241.93 482.05 263.9 504.02 263.9 531.13Z" /><g style="opacity: 0.275"><text style="transform: matrix(1,0,0,1,189.748,411.613)" ></text><path fill-rule="evenodd" class="shp31" d="M192.39 411.61L202.17 411.61L202.17 413.74L195.26 413.74L195.26 416.64L201.3 416.64L201.3 418.76L195.26 418.76L195.26 424L192.39 424L192.39 411.61ZM205.17 411.61L208.04 411.61L208.04 424L205.17 424L205.17 411.61ZM211.81 411.61L214.74 411.61L220.16 419.78L220.16 411.61L223.03 411.61L223.03 424L220.16 424L214.68 415.78L214.68 424L211.81 424L211.81 411.61ZM232.8 411.61C237.19 411.61 238.76 413.31 238.76 417.75C238.76 422.01 237.09 424 232.78 424L227 424L227 411.61L232.8 411.61ZM229.87 413.74L229.87 421.87L232.41 421.87C235.21 421.87 235.85 420.92 235.85 417.76C235.85 414.39 235.44 413.74 232.1 413.74L229.87 413.74Z" /><path class="shp32" d="M318.14 536L320.75 536L320.75 522.18L318.14 522.18L318.14 536Z" /><path class="shp32" d="M313 528.14L313 530.75L326.82 530.75L326.82 528.14L313 528.14Z" /><path class="shp32" d="M103 531.14L103 533.75L116.82 533.75L116.82 531.14L103 531.14Z" /><path class="shp33" d="M199.46 637.64L211.98 644.07L199.52 650.8L199.46 637.64ZM219.29 650.8L219.29 637.64L222.99 637.64L222.99 650.8L219.29 650.8ZM226.48 650.8L226.48 637.64L230.17 637.64L230.17 650.8L226.48 650.8Z" /></g><path class="shp34" d="M33.59 32.42L409.17 32.42L409.17 318.11L33.59 318.11L33.59 32.42Z" /><path class="shp35" d="M348.44 531.13C348.44 604.93 288.61 664.75 214.82 664.75C141.02 664.75 81.19 604.93 81.19 531.13C81.19 457.33 141.02 397.51 214.82 397.51C288.61 397.51 348.44 457.33 348.44 531.13L348.44 531.13Z" /><path class="shp36" d="M263.35 531.13C263.35 557.93 241.62 579.66 214.82 579.66C188.01 579.66 166.29 557.93 166.29 531.13C166.29 504.33 188.01 482.6 214.82 482.6C241.62 482.6 263.35 504.33 263.35 531.13L263.35 531.13Z" /><path class="shp37" d="M39.19 29.5C34.53 29.5 30.69 33.33 30.69 38L30.69 312.54C30.69 317.2 34.53 321.03 39.19 321.03L116.53 321.03L259.97 29.5L39.19 29.5L39.19 29.5Z" /></g></svg>